#!OML:ASF H:\Pregnant\Project 1\Capture day 1\Session 1\femalepreg.ASF
:FULLY-SPECIFIED
:DEGREES
281
root -0.668878 15.9878 -7.13602 19.7874 6.51497 -0.0447619
lowerback -11.8783 -5.52631 -2.67965
upperback -6.44241 -7.13526 4.58853
thorax 0.775339 -3.47489 5.36658
lowerneck -20.6402 3.97679 8.48393
upperneck 20.6489 4.39559 -6.30554
head 10.3532 1.94266 -2.99795
rclavicle 1.49089e-015 -1.90833e-014
rhumerus -44.7425 -3.35566 -70.0435
rradius 25.3041
rwrist -9.04828
rhand -21.8009 -20.6726
rfingers 7.12502
rthumb 4.60102 -50.6027
lclavicle 1.49089e-015 -1.90833e-014
lhumerus -30.7577 -14.7553 84.9434
lradius 29.5033
lwrist 39.972
lhand -23.1087 -3.6119
lfingers 7.12502
lthumb 3.33814 26.3417
rfemur -50.8043 16.4 6.92229
rtibia 31.5428
rfoot -11.723 -22.578
rtoes -10.3226
lfemur -15.7673 -10.2909 -21.3521
ltibia 17.0291
lfoot -15.9387 -3.50204
ltoes -18.4408
282
root -0.65074 15.9938 -7.24489 19.9891 6.61184 0.0654316
lowerback -11.7257 -5.69957 -3.32947
upperback -6.41437 -7.30442 4.50763
thorax 0.806776 -3.55063 5.62975
lowerneck -20.771 3.92336 8.6881
upperneck 20.5299 4.16551 -6.02325
head 10.3138 1.88431 -2.9624
rclavicle -1.61513e-015 -4.77083e-015
rhumerus -44.9898 -3.64553 -69.9048
rradius 25.3497
rwrist -8.94891
rhand -21.7744 -20.666
rfingers 7.12502
rthumb 4.62664 -50.5954
lclavicle -1.61513e-015 -4.77083e-015
lhumerus -29.8285 -14.7087 84.5851
lradius 29.6521
lwrist 39.6915
lhand -23.0337 -3.66515
lfingers 7.12502
lthumb 3.41052 26.2873
rfemur -51.2895 16.6667 6.18076
rtibia 31.3261
rfoot -12.0654 -23.0295
rtoes -10.0065
lfemur -16.242 -10.5167 -21.4847
ltibia 16.7326
lfoot -15.7362 -3.28485
ltoes -17.6741
283
root -0.633345 16.0006 -7.3537 20.1754 6.65489 0.186527
lowerback -11.5488 -5.85237 -4.01345
upperback -6.38824 -7.44577 4.42078
thorax 0.825055 -3.61172 5.91238
lowerneck -20.8639 3.85276 8.85482
upperneck 20.3845 3.91899 -5.71118
head 10.2555 1.81911 -2.91229
rclavicle -2.33572e-015 4.37326e-014
rhumerus -45.2597 -3.91266 -69.7807
rradius 25.4192
rwrist -8.87644
rhand -21.7132 -20.7166
rfingers 7.12502
rthumb 4.68567 -50.6447
lclavicle -2.33572e-015 4.37326e-014
lhumerus -28.9553 -14.6117 84.2391
lradius 29.8747
lwrist 39.4724
lhand -22.9991 -3.74819
lfingers 7.12502
lthumb 3.44401 26.2037
rfemur -51.764 16.9016 5.46294
rtibia 31.1165
rfoot -12.4041 -23.4011
rtoes -9.66832
lfemur -16.7727 -10.6958 -21.6396
ltibia 16.5748
lfoot -15.5149 -3.0863
ltoes -17.0373
284
root -0.616895 16.0077 -7.46245 20.3523 6.632 0.328449
lowerback -11.3383 -5.98603 -4.75203
upperback -6.36278 -7.5604 4.32973
thorax 0.828367 -3.6582 6.22868
lowerneck -20.9708 3.77327 8.98683
upperneck 20.2342 3.66326 -5.36903
head 10.1966 1.74989 -2.84692
rclavicle -5.83185e-014 -3.18055e-015
rhumerus -45.531 -4.16261 -69.669
rradius 25.5007
rwrist -8.81665
rhand -21.6104 -20.7922
rfingers 7.12502
rthumb 4.78502 -50.7182
lclavicle -5.83185e-014 -3.18055e-015
lhumerus -28.1233 -14.4518 83.9001
lradius 30.1611
lwrist 39.3212
lhand -22.9865 -3.8558
lfingers 7.12502
lthumb 3.45611 26.0959
rfemur -52.2449 17.0661 4.79213
rtibia 30.9516
rfoot -12.757 -23.6536
rtoes -9.28822
lfemur -17.333 -10.8248 -21.8215
ltibia 16.4966
lfoot -15.2984 -2.93608
ltoes -16.5996
285
root -0.601615 16.0151 -7.57094 20.524 6.53946 0.499395
lowerback -11.1001 -6.07414 -5.52936
upperback -6.35706 -7.61487 4.21374
thorax 0.789112 -3.67196 6.55422
lowerneck -21.0502 3.65172 9.05395
upperneck 20.0807 3.36187 -4.97925
head 10.1268 1.66022 -2.76093
rclavicle -7.01958e-014 1.39149e-014
rhumerus -45.8684 -4.46198 -69.5331
rradius 25.5931
rwrist -8.75378
rhand -21.4739 -20.8544
rfingers 7.12502
rthumb 4.91675 -50.7774
lclavicle -7.01958e-014 1.39149e-014
lhumerus -27.3634 -14.3353 83.6059
lradius 30.516
lwrist 39.2715
lhand -22.991 -3.97473
lfingers 7.12502
lthumb 3.45183 25.9771
rfemur -52.7486 17.1576 4.16801
rtibia 30.8652
rfoot -13.0915 -23.7943
rtoes -8.90855
lfemur -17.898 -10.8893 -22.0386
ltibia 16.4437
lfoot -15.0816 -2.86127
ltoes -16.3763
286
root -0.587568 16.0226 -7.67882 20.7012 6.37955 0.702174
lowerback -10.8608 -6.09349 -6.32474
upperback -6.38571 -7.5797 4.06401
thorax 0.695518 -3.63691 6.87132
lowerneck -21.0587 3.45353 9.00797
upperneck 19.9166 2.98558 -4.5347
head 10.0329 1.53403 -2.64842
rclavicle 5.84427e-014 5.96354e-015
rhumerus -46.3318 -4.84319 -69.3376
rradius 25.7149
rwrist -8.70905
rhand -21.3031 -20.9001
rfingers 7.12502
rthumb 5.08174 -50.8192
lclavicle 5.84427e-014 5.96354e-015
lhumerus -26.6906 -14.3427 83.402
lradius 30.932
lwrist 39.3332
lhand -22.9943 -4.11864
lfingers 7.12502
lthumb 3.44865 25.8332
rfemur -53.2857 17.14 3.61909
rtibia 30.8785
rfoot -13.3499 -23.805
rtoes -8.601
lfemur -18.4559 -10.8777 -22.296
ltibia 16.3795
lfoot -14.8478 -2.87401
ltoes -16.2899
287
root -0.574664 16.0301 -7.78532 20.875 6.16445 0.929593
lowerback -10.6268 -6.06165 -7.13022
upperback -6.43889 -7.47952 3.89355
thorax 0.563436 -3.56552 7.18391
lowerneck -21.0105 3.19499 8.83621
upperneck 19.7509 2.56106 -4.03717
head 9.92436 1.38209 -2.50395
rclavicle -1.07468e-014 -3.37934e-015
rhumerus -46.8798 -5.29489 -69.0814
rradius 25.8388
rwrist -8.66153
rhand -21.109 -20.8855
rfingers 7.12502
rthumb 5.26909 -50.8
lclavicle -1.07468e-014 -3.37934e-015
lhumerus -26.0914 -14.4505 83.2764
lradius 31.3987
lwrist 39.5109
lhand -22.9847 -4.27764
lfingers 7.12502
lthumb 3.45789 25.6741
rfemur -53.8256 16.9805 3.19786
rtibia 30.9972
rfoot -13.4881 -23.6688
rtoes -8.42854
lfemur -18.9872 -10.7875 -22.5909
ltibia 16.2932
lfoot -14.5898 -2.97169
ltoes -16.2498
288
root -0.562252 16.0378 -7.88991 21.0478 5.90145 1.16441
lowerback -10.4204 -5.97561 -7.903
upperback -6.51497 -7.31253 3.69803
thorax 0.398884 -3.45739 7.46097
lowerneck -20.9072 2.87778 8.53251
upperneck 19.5954 2.09085 -3.47951
head 9.80766 1.20594 -2.32367
rclavicle 2.9271e-014 3.53837e-014
rhumerus -47.5202 -5.81234 -68.7765
rradius 25.9676
rwrist -8.62779
rhand -20.8963 -20.8402
rfingers 7.12502
rthumb 5.47445 -50.7495
lclavicle 2.9271e-014 3.53837e-014
lhumerus -25.5653 -14.6659 83.2207
lradius 31.9092
lwrist 39.7844
lhand -22.9553 -4.45245
lfingers 7.12502
lthumb 3.48623 25.4988
rfemur -54.3463 16.6524 2.95628
rtibia 31.2152
rfoot -13.4967 -23.3648
rtoes -8.40773
lfemur -19.5033 -10.6338 -22.9086
ltibia 16.2002
lfoot -14.3072 -3.11889
ltoes -16.2153
289
root -0.549739 16.0453 -7.99216 21.2169 5.61387 1.38763
lowerback -10.2719 -5.86091 -8.6161
upperback -6.58649 -7.11136 3.49057
thorax 0.251398 -3.33249 7.69091
lowerneck -20.776 2.53356 8.13517
upperneck 19.4434 1.61153 -2.89632
head 9.69033 1.02086 -2.12062
rclavicle 8.68441e-014 1.80894e-014
rhumerus -48.1799 -6.36564 -68.4574
rradius 26.089
rwrist -8.62299
rhand -20.6642 -20.775
rfingers 7.12502
rthumb 5.69853 -50.6783
lclavicle 8.68441e-014 1.80894e-014
lhumerus -25.0693 -14.935 83.1928
lradius 32.451
lwrist 40.1309
lhand -22.8961 -4.62944
lfingers 7.12502
lthumb 3.54346 25.3208
rfemur -54.8283 16.1951 2.89262
rtibia 31.5199
rfoot -13.3803 -22.9474
rtoes -8.5446
lfemur -20.0186 -10.4471 -23.2251
ltibia 16.1316
lfoot -13.99 -3.27839
ltoes -16.1082
